<?xml version="1.0" encoding="UTF-8"?>
<svg version="1.1" xmlns="http://www.w3.org/2000/svg" width="496" height="458">
<path d="M0 0 C3.6425647 0.00228838 7.28512484 -0.00124215 10.9276886 -0.00397992 C18.03578372 -0.00839806 25.14386822 -0.00747951 32.25196373 -0.00456728 C38.02529177 -0.00230044 43.79861684 -0.00200624 49.57194519 -0.0030911 C50.80864359 -0.00332095 50.80864359 -0.00332095 52.07032579 -0.00355544 C53.74547998 -0.00387518 55.42063417 -0.0041994 57.09578836 -0.00452803 C72.75229337 -0.00737047 88.40879249 -0.00411376 104.06529653 0.00127234 C117.50579896 0.00575261 130.94629276 0.00495202 144.38679504 0.00035357 C160.01560451 -0.00499109 175.64440886 -0.00710991 191.27321911 -0.00403416 C192.93700345 -0.00371562 194.6007878 -0.00340125 196.26457214 -0.0030911 C197.0831215 -0.00293682 197.90167086 -0.00278255 198.74502474 -0.0026236 C204.52109339 -0.00175911 210.29715879 -0.00321957 216.07322693 -0.00557065 C223.09700655 -0.00836703 230.12077498 -0.00763327 237.1445533 -0.00228991 C240.72952333 0.00034724 244.31447467 0.00135176 247.89944458 -0.00193906 C251.775854 -0.00544389 255.65223245 -0.00127421 259.52864075 0.00374103 C260.67363446 0.0015103 261.81862818 -0.00072042 262.99831867 -0.00301874 C264.02787772 -0.00041099 265.05743677 0.00219676 266.11819458 0.00488353 C267.01385289 0.00504588 267.9095112 0.00520823 268.83231068 0.0053755 C270.84773254 0.13072467 270.84773254 0.13072467 271.84773254 1.13072467 C271.94596268 2.50564874 271.97512162 3.88558122 271.976367 5.26400924 C271.97959144 6.16058256 271.98281589 7.05715587 271.98613805 7.98089808 C271.98458944 8.97735364 271.98304084 9.9738092 271.98144531 11.00046039 C271.98371087 12.05033824 271.98597643 13.10021609 271.98831064 14.18190843 C271.99468338 17.72988088 271.99381915 21.27781545 271.99299622 24.82579303 C271.99598595 27.3582795 271.99938804 29.89076551 272.00317383 32.42325091 C272.01112033 38.6101264 272.01422972 44.79698782 272.01478621 50.98386794 C272.0152611 56.01992343 272.01731457 61.05597578 272.02048683 66.09203029 C272.02930463 80.38269919 272.03390531 94.67336058 272.03315636 108.96403223 C272.03309642 110.12101886 272.03309642 110.12101886 272.03303528 111.30137897 C272.0329944 112.07365172 272.03295352 112.84592447 272.0329114 113.64159942 C272.03250624 126.11625131 272.04203984 138.59087281 272.05617364 151.06551593 C272.07058466 163.88675736 272.07744101 176.70798403 272.07657987 189.52923375 C272.07624917 196.72190517 272.07893919 203.91454488 272.08975792 211.10720897 C272.0998911 217.88773089 272.09947946 224.6681753 272.09224129 231.44870448 C272.09120197 233.9260964 272.0935191 236.40349258 272.09960175 238.88087726 C272.13875766 255.94693983 271.86068517 272.85993591 267.66023254 289.50572467 C267.33550964 290.81114215 267.33550964 290.81114215 267.00422668 292.1429317 C260.58997298 317.10201089 249.69646657 339.75996278 233.84773254 360.13072467 C233.41170715 360.69372272 232.97568176 361.25672076 232.52644348 361.83677936 C221.56168009 375.79573443 208.71679151 388.50473234 194.50788879 399.12681842 C191.86370728 401.02186255 191.86370728 401.02186255 189.84773254 403.13072467 C159.64589998 424.01743263 126.30112109 435.82073957 89.84773254 439.13072467 C92.62933439 435.5249445 95.61509688 432.33324261 98.84773254 429.13072467 C126.077418 399.01906521 136.49404108 356.27925348 134.63288879 316.43150592 C131.97499325 274.51249207 116.2718095 236.38598293 90.09358215 203.85972857 C88.77522883 202.0301032 87.80221429 200.17041613 86.84773254 198.13072467 C86.18773254 198.13072467 85.52773254 198.13072467 84.84773254 198.13072467 C83.50788879 196.76744342 83.50788879 196.76744342 81.91023254 194.81822467 C74.9133043 186.59683398 67.13346508 179.04600334 58.84773254 172.13072467 C58.08718567 171.49263873 57.32663879 170.85455279 56.54304504 170.19713092 C45.15513356 160.7648942 33.46474947 151.66310862 21.46101379 143.02916217 C-7.43160653 122.03990435 -41.740237 96.20762348 -48.46476746 58.75572467 C-49.1151943 54.51899934 -49.21074083 50.41522794 -49.15226746 46.13072467 C-58.13782278 50.37543485 -66.70161629 54.42513862 -74.15226746 61.13072467 C-74.75039246 61.62572467 -75.34851746 62.12072467 -75.96476746 62.63072467 C-86.7274278 72.24024283 -92.34658091 86.99458798 -93.15226746 101.13072467 C-93.20511902 101.88740436 -93.25797058 102.64408404 -93.31242371 103.42369342 C-93.78931063 116.1337666 -90.23106753 129.16637087 -82.46476746 139.34166217 C-81.15226746 141.13072467 -81.15226746 141.13072467 -81.15226746 143.13072467 C-80.49226746 143.13072467 -79.83226746 143.13072467 -79.15226746 143.13072467 C-78.16226746 145.60572467 -78.16226746 145.60572467 -77.15226746 148.13072467 C-78.06105652 148.28927936 -78.96984558 148.44783404 -79.90617371 148.61119342 C-110.4279654 154.27729013 -138.13556701 169.03325671 -156.39860535 194.76646686 C-175.24454646 222.79131716 -181.21271591 257.68019486 -175.05607605 290.75499225 C-172.0668582 305.18305473 -166.58008975 319.68265474 -157.15226746 331.13072467 C-156.30845228 332.19838149 -155.46470731 333.26609381 -154.62101746 334.33384967 C-140.06822991 352.4262942 -121.32148167 363.08659433 -98.15226746 366.13072467 C-93.80279521 366.3342605 -89.50123567 366.3287384 -85.15226746 366.13072467 C-85.96631042 364.80621295 -85.96631042 364.80621295 -86.79679871 363.45494342 C-95.26211666 349.40322501 -98.88444382 335.2359096 -95.46086121 318.81431842 C-94.54036849 316.10676036 -93.47627348 313.66396219 -92.15226746 311.13072467 C-91.70496277 310.27220904 -91.25765808 309.41369342 -90.79679871 308.52916217 C-85.78245642 299.62971286 -79.93484791 293.26188363 -71.38664246 287.67369342 C-69.15326376 286.25669351 -69.15326376 286.25669351 -67.66789246 284.49400592 C-65.61386385 282.64643895 -63.85478388 282.55210654 -61.15226746 282.13072467 C-59.58494866 281.64604121 -58.02241292 281.14564879 -56.46476746 280.63072467 C-41.87777535 276.24818212 -26.92310421 277.72125687 -13.15226746 284.13072467 C2.22873957 292.74114487 12.38763323 304.85859797 18.15632629 321.59556842 C23.83579363 342.420282 19.19638427 364.88490388 9.01570129 383.47838092 C-1.58702817 401.83240285 -17.02812162 416.4501452 -35.15226746 427.13072467 C-36.58506042 427.98343951 -36.58506042 427.98343951 -38.04679871 428.85338092 C-60.4840273 441.12324998 -87.85983316 441.90227997 -112.05851746 435.06431842 C-140.39008224 426.19607035 -165.05407097 406.40108876 -179.21818542 380.15562701 C-181.38794105 375.89189179 -183.2979181 371.53963343 -185.15226746 367.13072467 C-185.64726746 365.96412311 -186.14226746 364.79752154 -186.65226746 363.59556842 C-187.51367659 361.54238017 -188.3666124 359.48559353 -189.20695496 357.42369342 C-190.10944999 355.15590256 -190.10944999 355.15590256 -191.15226746 353.13072467 C-191.69949988 350.38958773 -192.11467775 347.63458745 -192.54679871 344.87291217 C-192.96319873 342.29929135 -193.41286992 339.75704148 -193.91398621 337.20103717 C-195.69329251 327.73219194 -196.456964 318.37811153 -196.73429871 308.75181842 C-196.75414196 308.10169913 -196.77398521 307.45157985 -196.79442978 306.78175998 C-197.33803232 288.64598975 -197.3039679 270.50238779 -197.28263855 252.36021686 C-197.27693385 247.47872647 -197.2803415 242.5972905 -197.28607178 237.71580195 C-197.303471 220.32389781 -197.30092859 202.9365099 -196.72257996 185.55259967 C-196.68593231 184.43299853 -196.64928467 183.3133974 -196.61152649 182.15986896 C-194.61334922 130.77072123 -171.97739425 84.24972209 -137.15226746 47.13072467 C-136.61988464 46.54549029 -136.08750183 45.96025592 -135.53898621 45.35728717 C-99.27637268 7.0250952 -50.15517295 -0.04672609 0 0 Z M181.84773254 40.13072467 C181.75426339 41.7881091 181.73028277 43.44947111 181.73420715 45.10948443 C181.734328 46.18540851 181.73444885 47.26133258 181.73457336 48.36986041 C181.73968933 49.50910968 181.7448053 50.64835895 181.75007629 51.82213092 C181.75108337 52.8630086 181.75209045 53.90388629 181.75312805 54.97630572 C181.75837854 58.8819565 181.77233965 62.78759164 181.78523254 66.69322467 C181.80585754 75.41759967 181.82648254 84.14197467 181.84773254 93.13072467 C199.66773254 93.13072467 217.48773254 93.13072467 235.84773254 93.13072467 C235.97148254 81.37447467 235.97148254 81.37447467 236.09773254 69.38072467 C236.15235657 65.67644244 236.15235657 65.67644244 236.20808411 61.89732623 C236.21976717 59.93867623 236.2299599 57.98001652 236.23835754 56.02134967 C236.26905334 54.49743609 236.26905334 54.49743609 236.30036926 52.94273639 C236.43245846 47.34839561 236.43245846 47.34839561 233.88581848 42.57506061 C232.87696594 41.86011432 232.87696594 41.86011432 231.84773254 41.13072467 C231.35273254 40.14072467 231.35273254 40.14072467 230.84773254 39.13072467 C224.0301136 39.10545576 217.21250665 39.08789222 210.39485168 39.07579303 C208.07355803 39.07075133 205.75226757 39.06391815 203.4309845 39.05528522 C200.1024446 39.04321242 196.77394652 39.03749488 193.44538879 39.03306842 C192.40060867 39.02790713 191.35582855 39.02274585 190.27938843 39.01742816 C188.83800758 39.01731486 188.83800758 39.01731486 187.36750793 39.01719928 C186.5170137 39.01497867 185.66651947 39.01275805 184.79025269 39.01047015 C182.84184709 38.91592183 182.84184709 38.91592183 181.84773254 40.13072467 Z M231.84773254 40.13072467 C233.82773254 41.12072467 233.82773254 41.12072467 235.84773254 42.13072467 C235.84773254 41.47072467 235.84773254 40.81072467 235.84773254 40.13072467 C234.52773254 40.13072467 233.20773254 40.13072467 231.84773254 40.13072467 Z M116.84773254 52.13072467 C115.99371527 64.4740088 115.99371527 64.4740088 115.67976379 76.80259967 C115.67643539 77.61771014 115.67310699 78.43282062 115.66967773 79.27263141 C115.66469812 80.95937302 115.66226655 82.64612415 115.66242981 84.33287311 C115.66019928 86.91929333 115.64183313 89.50531447 115.62312317 92.09166217 C115.62019599 93.74530656 115.61820669 95.39895295 115.61726379 97.05259967 C115.61007828 97.82126361 115.60289276 98.58992755 115.5954895 99.38188434 C115.61187636 103.17494477 115.69089156 104.8954632 117.84773254 108.13072467 C117.51773254 108.79072467 117.18773254 109.45072467 116.84773254 110.13072467 C123.80776701 110.15599305 130.76778974 110.17355689 137.7278595 110.18565631 C140.09765566 110.19069808 142.46744869 110.19753132 144.8372345 110.20616412 C148.23527293 110.21823657 151.6332704 110.22395438 155.03132629 110.22838092 C156.09798019 110.2335422 157.16463409 110.23870349 158.26361084 110.24402118 C159.24455215 110.24409671 160.22549347 110.24417224 161.23616028 110.24425006 C162.1044194 110.24647067 162.97267853 110.24869128 163.86724854 110.25097919 C165.84916935 110.35027134 165.84916935 110.35027134 166.84773254 109.13072467 C166.94143879 107.35080543 166.96517525 105.56715727 166.96125793 103.7847774 C166.9611824 102.64367007 166.96110687 101.50256274 166.96102905 100.3268764 C166.95586777 99.08523227 166.95070648 97.84358813 166.94538879 96.56431842 C166.94326637 94.668679 166.94326637 94.668679 166.94110107 92.73474383 C166.93643837 89.36947578 166.92744735 86.00427477 166.91639709 82.63902545 C166.906181 79.20722808 166.90154833 75.77542359 166.89656067 72.34361529 C166.88635517 65.60594713 166.86678346 58.86839696 166.84773254 52.13072467 C150.34773254 52.13072467 133.84773254 52.13072467 116.84773254 52.13072467 Z M168.84773254 108.13072467 C168.84773254 124.96072467 168.84773254 141.79072467 168.84773254 159.13072467 C185.34773254 159.13072467 201.84773254 159.13072467 218.84773254 159.13072467 C219.66548282 155.85972358 219.97008887 153.64727795 219.96125793 150.36216998 C219.96107666 148.93155231 219.96107666 148.93155231 219.96089172 147.47203326 C219.95577576 146.47768268 219.95065979 145.48333209 219.94538879 144.45884967 C219.94438171 143.53894244 219.94337463 142.61903522 219.94233704 141.67125201 C219.9371124 138.24106352 219.92315112 134.81089282 219.91023254 131.38072467 C219.88960754 123.70822467 219.86898254 116.03572467 219.84773254 108.13072467 C203.01773254 108.13072467 186.18773254 108.13072467 168.84773254 108.13072467 Z " fill="#3080D3" transform="translate(212.1522674560547,10.869275331497192)"/>
<path d="M0 0 C17.82 0 35.64 0 54 0 C54 18.48 54 36.96 54 56 C71.16 56 88.32 56 106 56 C106 73.82 106 91.64 106 110 C88.51 110 71.02 110 53 110 C53 93.5 53 77 53 60 C35.51 60 18.02 60 0 60 C0 40.2 0 20.4 0 0 Z M2 1 C1.14598273 13.34328413 1.14598273 13.34328413 0.83203125 25.671875 C0.82870285 26.48698547 0.82537445 27.30209595 0.82194519 28.14190674 C0.81696557 29.82864835 0.81453401 31.51539948 0.81469727 33.20214844 C0.81246674 35.78856866 0.79410058 38.37458981 0.77539062 40.9609375 C0.77246345 42.6145819 0.77047414 44.26822828 0.76953125 45.921875 C0.76234573 46.69053894 0.75516022 47.45920288 0.74775696 48.25115967 C0.76414381 52.0442201 0.84315902 53.76473853 3 57 C2.67 57.66 2.34 58.32 2 59 C8.96003447 59.02526838 15.9200572 59.04283222 22.88012695 59.05493164 C25.24992312 59.05997341 27.61971615 59.06680665 29.98950195 59.07543945 C33.38754039 59.0875119 36.78553785 59.09322971 40.18359375 59.09765625 C41.25024765 59.10281754 42.31690155 59.10797882 43.4158783 59.11329651 C44.39681961 59.11337204 45.37776093 59.11344757 46.38842773 59.11352539 C47.25668686 59.115746 48.12494598 59.11796661 49.01951599 59.12025452 C51.00143681 59.21954667 51.00143681 59.21954667 52 58 C52.09370624 56.22008076 52.11744271 54.43643261 52.11352539 52.65405273 C52.11344986 51.5129454 52.11337433 50.37183807 52.11329651 49.19615173 C52.10813522 47.9545076 52.10297394 46.71286346 52.09765625 45.43359375 C52.09553383 43.53795433 52.09553383 43.53795433 52.09336853 41.60401917 C52.08870582 38.23875111 52.0797148 34.8735501 52.06866455 31.50830078 C52.05844846 28.07650341 52.05381578 24.64469892 52.04882812 21.21289062 C52.03862263 14.47522246 52.01905091 7.73767229 52 1 C35.5 1 19 1 2 1 Z M54 57 C54 73.83 54 90.66 54 108 C70.5 108 87 108 104 108 C104.81775027 104.72899891 105.12235633 102.51655328 105.11352539 99.23144531 C105.11334412 97.80082764 105.11334412 97.80082764 105.11315918 96.34130859 C105.10804321 95.34695801 105.10292725 94.35260742 105.09765625 93.328125 C105.09664917 92.40821777 105.09564209 91.48831055 105.09460449 90.54052734 C105.08937985 87.11033885 105.07541858 83.68016815 105.0625 80.25 C105.041875 72.5775 105.02125 64.905 105 57 C88.17 57 71.34 57 54 57 Z " fill="#133155" transform="translate(327,62)"/>
<path d="M0 0 C5.96313166 -0.02464574 11.92623395 -0.042834 17.8894043 -0.05493164 C19.91968298 -0.05997278 21.94995802 -0.06680557 23.98022461 -0.07543945 C26.89177347 -0.08751467 29.8032745 -0.09323034 32.71484375 -0.09765625 C33.6283812 -0.10281754 34.54191864 -0.10797882 35.48313904 -0.11329651 C37.65575427 -0.11349168 39.82827296 -0.06211805 42 0 C43.54814643 1.54814643 43.12539405 2.99399984 43.12584114 5.15004444 C43.12844889 6.05031795 43.13105664 6.95059147 43.13374341 7.87814599 C43.13151268 8.87869427 43.12928196 9.87924255 43.12698364 10.91011047 C43.12854363 11.96422172 43.13010362 13.01833297 43.13171089 14.10438699 C43.13572618 17.66636626 43.13252909 21.22830354 43.12939453 24.7902832 C43.13074843 27.33250453 43.13252829 29.87472566 43.13470459 32.41694641 C43.13880632 38.62587397 43.13818441 44.83478577 43.13529195 51.04371355 C43.1330365 56.09412229 43.13272602 61.14452765 43.13381577 66.19493675 C43.133969 66.91293051 43.13412223 67.63092427 43.13428011 68.37067541 C43.13459983 69.8292651 43.13492405 71.2878548 43.1352527 72.74644449 C43.13810867 86.44604354 43.1348198 100.14563592 43.12945233 113.84523388 C43.12499465 125.58538389 43.12575142 137.325524 43.13037109 149.06567383 C43.13573287 162.6981309 43.13782294 176.33058208 43.13475883 189.96304005 C43.13444029 191.41972331 43.13412592 192.87640657 43.13381577 194.33308983 C43.13358435 195.40811753 43.13358435 195.40811753 43.13334826 196.50486297 C43.13248713 201.5401983 43.1339375 206.57552989 43.13629532 211.61086464 C43.13940715 218.40612582 43.13716396 225.20136556 43.13140106 231.9966259 C43.13008292 234.4862121 43.13045146 236.97579987 43.13266373 239.46538544 C43.13541286 242.8746343 43.1319482 246.2838243 43.12698364 249.69306946 C43.12921436 250.6690798 43.13144509 251.64509014 43.13374341 252.65067655 C43.11458796 259.47442575 42.65333445 266.20861723 42 273 C41.67 273 41.34 273 41 273 C41 183.57 41 94.14 41 2 C27.47 2 13.94 2 0 2 C0 1.34 0 0.68 0 0 Z " fill="#193B61" transform="translate(441,11)"/>
<path d="M0 0 C0.33 0 0.66 0 1 0 C1.03738281 1.03640625 1.07476562 2.0728125 1.11328125 3.140625 C1.17895788 4.51045184 1.24540464 5.88024191 1.3125 7.25 C1.34633789 8.27287109 1.34633789 8.27287109 1.38085938 9.31640625 C1.6050606 13.51508377 2.03957843 15.98239946 5 19 C7.26572603 19.61434845 7.26572603 19.61434845 9.83862305 19.54589844 C11.3303302 19.57562744 11.3303302 19.57562744 12.85217285 19.60595703 C14.41614807 19.60764893 14.41614807 19.60764893 16.01171875 19.609375 C16.97194946 19.62500488 17.93218018 19.64063477 18.92150879 19.65673828 C22.5099214 19.70935721 26.09877147 19.72760829 29.6875 19.75 C41.7221875 19.87375 41.7221875 19.87375 54 20 C54 36.5 54 53 54 70 C71.16 70 88.32 70 106 70 C106 70.33 106 70.66 106 71 C88.51 71 71.02 71 53 71 C53 54.5 53 38 53 21 C35.51 21 18.02 21 0 21 C0 14.07 0 7.14 0 0 Z " fill="#215595" transform="translate(327,101)"/>
<path d="M0 0 C-3.01905791 0.81919421 -6.04053079 1.62911767 -9.0625 2.4375 C-10.33383789 2.78264648 -10.33383789 2.78264648 -11.63085938 3.13476562 C-19.45941661 5.22036581 -26.84929374 6.16595294 -34.9375 6.125 C-35.69740234 6.12886719 -36.45730469 6.13273437 -37.24023438 6.13671875 C-42.24363828 6.12817323 -47.04697326 5.70999018 -52 5 C-52 4.67 -52 4.34 -52 4 C-51.06728271 3.97494385 -50.13456543 3.9498877 -49.17358398 3.92407227 C-45.68650084 3.82847932 -42.19955812 3.72927541 -38.71264648 3.62768555 C-37.20845501 3.58458874 -35.70422252 3.54289793 -34.19995117 3.50268555 C-32.02770674 3.44436543 -29.85566398 3.38085516 -27.68359375 3.31640625 C-26.37962646 3.27974854 -25.07565918 3.24309082 -23.73217773 3.20532227 C-20.08248344 3.00453775 -16.60532442 2.57334248 -13 2 C-13 1.34 -13 0.68 -13 0 C-11.58456585 -0.19658808 -10.16755969 -0.38187546 -8.75 -0.5625 C-7.96109375 -0.66691406 -7.1721875 -0.77132813 -6.359375 -0.87890625 C-3.98020513 -1.00101596 -2.27793584 -0.6241208 0 0 Z " fill="#1A395C" transform="translate(165,444)"/>
<path d="M0 0 C0.33 0 0.66 0 1 0 C1.03738281 1.03640625 1.07476562 2.0728125 1.11328125 3.140625 C1.17895788 4.51045184 1.24540464 5.88024191 1.3125 7.25 C1.34633789 8.27287109 1.34633789 8.27287109 1.38085938 9.31640625 C1.60519944 13.51768386 2.05505681 15.96870694 5 19 C7.14294446 19.61292341 7.14294446 19.61292341 9.56323242 19.54589844 C10.94432442 19.57547638 10.94432442 19.57547638 12.35331726 19.60565186 C13.34402725 19.60688049 14.33473724 19.60810913 15.35546875 19.609375 C16.37224197 19.62591125 17.3890152 19.64244751 18.43659973 19.65948486 C21.6869604 19.70810414 24.93685278 19.72936706 28.1875 19.75 C30.3899977 19.77814797 32.59247345 19.80807373 34.79492188 19.83984375 C40.19652916 19.91386646 45.598004 19.96542723 51 20 C51 20.33 51 20.66 51 21 C34.17 21 17.34 21 0 21 C0 14.07 0 7.14 0 0 Z " fill="#194884" transform="translate(327,101)"/>
<path d="M0 0 C-15.22084541 4.55700083 -30.18682285 7.47605436 -46 9 C-44.68 7.35 -43.36 5.7 -42 4 C-41.34 4.33 -40.68 4.66 -40 5 C-40.33 5.33 -40.66 5.66 -41 6 C-34.30992818 5.47594437 -27.6512513 4.89536075 -21 4 C-21 3.34 -21 2.68 -21 2 C-20.28714844 1.95101563 -19.57429688 1.90203125 -18.83984375 1.8515625 C-12.3309085 1.36332909 -12.3309085 1.36332909 -6 -0.125 C-3 -1 -3 -1 0 0 Z " fill="#214F80" transform="translate(348,441)"/>
<path d="M0 0 C8.20682234 4.10341117 14.28816148 10.1469358 19 18 C18.67 18.66 18.34 19.32 18 20 C17.61328125 19.44570313 17.2265625 18.89140625 16.828125 18.3203125 C16.30734375 17.59585937 15.7865625 16.87140625 15.25 16.125 C14.48429688 15.04605469 14.48429688 15.04605469 13.703125 13.9453125 C11.92496453 11.91429435 10.47298393 11.02144988 8 10 C8 9.01 8 8.02 8 7 C7.4225 6.896875 6.845 6.79375 6.25 6.6875 C3.61872985 5.88350079 2.01311907 4.86932485 0 3 C0 2.01 0 1.02 0 0 Z " fill="#23558B" transform="translate(204,299)"/>
<path d="M0 0 C0 3 0 3 -1.64453125 4.75390625 C-2.71767578 5.64916016 -2.71767578 5.64916016 -3.8125 6.5625 C-4.52019531 7.16191406 -5.22789063 7.76132813 -5.95703125 8.37890625 C-8 10 -8 10 -11 12 C-11.33 11.01 -11.66 10.02 -12 9 C-11.01 9 -10.02 9 -9 9 C-8.95875 8.443125 -8.9175 7.88625 -8.875 7.3125 C-7.51963902 3.73047455 -4.03008154 0 0 0 Z " fill="#2B69AD" transform="translate(79,179)"/>
<path d="M0 0 C2 3 2 3 1.625 5.1875 C1.41875 5.785625 1.2125 6.38375 1 7 C0.34 7 -0.32 7 -1 7 C-1.19335938 7.66386719 -1.38671875 8.32773438 -1.5859375 9.01171875 C-4.17223199 17.78207381 -4.17223199 17.78207381 -6 22 C-7.13702419 18.66472903 -6.88480118 16.91003798 -5.56640625 13.671875 C-5.24736328 12.87265625 -4.92832031 12.0734375 -4.59960938 11.25 C-4.25736328 10.425 -3.91511719 9.6 -3.5625 8.75 C-3.22412109 7.90953125 -2.88574219 7.0690625 -2.53710938 6.203125 C-1.70126562 4.13117428 -0.85533351 2.06396385 0 0 Z " fill="#204D7E" transform="translate(33,119)"/>
<path d="M0 0 C0.66 0.33 1.32 0.66 2 1 C1.51789063 1.38671875 1.03578125 1.7734375 0.5390625 2.171875 C-0.09257813 2.69265625 -0.72421875 3.2134375 -1.375 3.75 C-2.00148438 4.26046875 -2.62796875 4.7709375 -3.2734375 5.296875 C-5.09492034 7.09363183 -5.92399286 8.70232536 -7 11 C-8.9375 12.8125 -8.9375 12.8125 -11 14 C-11.99 13.67 -12.98 13.34 -14 13 C-9.51286432 8.4103663 -5.01431776 4.01145421 0 0 Z " fill="#204E80" transform="translate(88,46)"/>
<path d="M0 0 C-3.10051447 0.8678228 -6.20586665 1.71686767 -9.3125 2.5625 C-10.19357422 2.80935547 -11.07464844 3.05621094 -11.98242188 3.31054688 C-12.82998047 3.53935547 -13.67753906 3.76816406 -14.55078125 4.00390625 C-15.33106689 4.21861572 -16.11135254 4.4333252 -16.9152832 4.65454102 C-19 5 -19 5 -22 4 C-19.03 3.34 -16.06 2.68 -13 2 C-13 1.34 -13 0.68 -13 0 C-11.58456585 -0.19658808 -10.16755969 -0.38187546 -8.75 -0.5625 C-7.96109375 -0.66691406 -7.1721875 -0.77132813 -6.359375 -0.87890625 C-3.98020513 -1.00101596 -2.27793584 -0.6241208 0 0 Z " fill="#204D7E" transform="translate(165,444)"/>
<path d="M0 0 C1.98 0 3.96 0 6 0 C3.10414095 2.29648357 0.1827969 4.04347557 -3.125 5.6875 C-4.42824219 6.34298828 -4.42824219 6.34298828 -5.7578125 7.01171875 C-8 8 -8 8 -10 8 C-10 7.01 -10 6.02 -10 5 C-8.68 5 -7.36 5 -6 5 C-6 4.34 -6 3.68 -6 3 C-4.02 2.67 -2.04 2.34 0 2 C0 1.34 0 0.68 0 0 Z " fill="#24588F" transform="translate(99,166)"/>
<path d="M0 0 C0.66 0.33 1.32 0.66 2 1 C1.67 1.33 1.34 1.66 1 2 C7.27 1.67 13.54 1.34 20 1 C20 1.33 20 1.66 20 2 C12.08 2.99 4.16 3.98 -4 5 C-2.68 3.35 -1.36 1.7 0 0 Z " fill="#193555" transform="translate(306,445)"/>
<path d="M0 0 C1 3 1 3 -0.43359375 5.91796875 C-1.09488281 6.99691406 -1.75617188 8.07585937 -2.4375 9.1875 C-3.09621094 10.27417969 -3.75492188 11.36085938 -4.43359375 12.48046875 C-5.20896484 13.72763672 -5.20896484 13.72763672 -6 15 C-7.4036827 10.78895189 -5.85924949 8.92508225 -4 5 C-3.649375 4.21625 -3.29875 3.4325 -2.9375 2.625 C-2 1 -2 1 0 0 Z " fill="#25588F" transform="translate(223,386)"/>
<path d="M0 0 C0.99 0 1.98 0 3 0 C3.33 6.93 3.66 13.86 4 21 C3.67 21 3.34 21 3 21 C2.01 14.07 1.02 7.14 0 0 Z " fill="#183B62" transform="translate(162,55)"/>
<path d="M0 0 C0.33 0 0.66 0 1 0 C1.03738281 1.03640625 1.07476562 2.0728125 1.11328125 3.140625 C1.17895788 4.51045184 1.24540464 5.88024191 1.3125 7.25 C1.34633789 8.27287109 1.34633789 8.27287109 1.38085938 9.31640625 C1.60166604 13.45151296 2.09593 15.97914434 5 19 C4.34 19.66 3.68 20.32 3 21 C2.01 21 1.02 21 0 21 C0 14.07 0 7.14 0 0 Z " fill="#153D6C" transform="translate(327,101)"/>
<path d="M0 0 C0.33 0 0.66 0 1 0 C0.67 5.61 0.34 11.22 0 17 C-0.99 17.33 -1.98 17.66 -3 18 C-2.51679152 11.7945858 -1.66681876 6.00054754 0 0 Z " fill="#204F81" transform="translate(21,155)"/>
<path d="M0 0 C3.71323586 0.50178863 5.66276162 1.02533297 8 4 C9.03357147 5.64605826 10.04060332 7.30963442 11 9 C8.03469503 7.64199529 5.70868729 6.07571737 3.25 3.9375 C2.63640625 3.41027344 2.0228125 2.88304687 1.390625 2.33984375 C0.93171875 1.89769531 0.4728125 1.45554688 0 1 C0 0.67 0 0.34 0 0 Z " fill="#215286" transform="translate(259,172)"/>
<path d="M0 0 C0.66 0.33 1.32 0.66 2 1 C-0.21689838 5.43379675 -2.77728219 7.46636932 -7 10 C-5.33248852 6.05860922 -2.77289351 3.2107188 0 0 Z " fill="#1D4A7B" transform="translate(133,304)"/>
<path d="M0 0 C-1.24176695 0.70226141 -2.49385599 1.38629109 -3.75 2.0625 C-4.79414063 2.63677734 -4.79414063 2.63677734 -5.859375 3.22265625 C-8.36140628 4.1312406 -9.5332355 3.88336837 -12 3 C-11.67 2.34 -11.34 1.68 -11 1 C-9.34385343 0.61781233 -7.67542976 0.28604898 -6 0 C-3.50907189 -1.24546405 -2.58919267 -0.7767578 0 0 Z " fill="#1D4775" transform="translate(157,293)"/>
<path d="M0 0 C2.19636905 2.19636905 3.58511552 4.23760649 5 7 C4.67 7.99 4.34 8.98 4 10 C2.02 7.03 0.04 4.06 -2 1 C-1.34 0.67 -0.68 0.34 0 0 Z " fill="#22558B" transform="translate(42,400)"/>
<path d="M0 0 C0.66 1.32 1.32 2.64 2 4 C1.01 4.33 0.02 4.66 -1 5 C-1.73323796 7.01508358 -1.73323796 7.01508358 -2 9 C-2.66 9 -3.32 9 -4 9 C-2.94124926 5.59687262 -1.99097846 2.98646769 0 0 Z " fill="#24588F" transform="translate(42,102)"/>
<path d="M0 0 C2.875 0.25 2.875 0.25 6 1 C7.3125 2.9375 7.3125 2.9375 8 5 C8.33 5.66 8.66 6.32 9 7 C5.18315774 5.44499019 2.80804268 2.96404505 0 0 Z " fill="#205185" transform="translate(246,162)"/>
<path d="M0 0 C0.66 0 1.32 0 2 0 C2.28875 0.61875 2.5775 1.2375 2.875 1.875 C3.93720042 4.13325765 3.93720042 4.13325765 6 6 C5.625 8.125 5.625 8.125 5 10 C4.16121545 8.71186658 3.32913217 7.41936744 2.5 6.125 C2.0359375 5.40570313 1.571875 4.68640625 1.09375 3.9453125 C0 2 0 2 0 0 Z " fill="#21548C" transform="translate(121,365)"/>
<path d="M0 0 C1.9375 0.125 1.9375 0.125 4 1 C5.25 3.5625 5.25 3.5625 6 6 C2.34683329 4.75023244 1.21934164 4.32901247 -1 1 C-0.67 0.67 -0.34 0.34 0 0 Z " fill="#235A94" transform="translate(236,153)"/>
<path d="M0 0 C0.66 1.32 1.32 2.64 2 4 C0 7 0 7 -3 8 C-1.125 2.25 -1.125 2.25 0 0 Z " fill="#245B94" transform="translate(331,410)"/>
<path d="M0 0 C0.66 0.99 1.32 1.98 2 3 C0.68 5.31 -0.64 7.62 -2 10 C-3.06016453 6.8195064 -3.04507457 6.04021693 -2 3 C-1.34 2.01 -0.68 1.02 0 0 Z " fill="#24558B" transform="translate(51,207)"/>
<path d="M0 0 C0.598125 0.20625 1.19625 0.4125 1.8125 0.625 C-2.9375 4.625 -2.9375 4.625 -5.1875 4.625 C-5.1875 3.635 -5.1875 2.645 -5.1875 1.625 C-2.1875 -0.375 -2.1875 -0.375 0 0 Z " fill="#295F9A" transform="translate(399.1875,413.375)"/>
<path d="M0 0 C0.66 0 1.32 0 2 0 C1.60196439 2.88575819 1.20990931 3.82189513 -1.0625 5.75 C-1.701875 6.1625 -2.34125 6.575 -3 7 C-3.33 6.01 -3.66 5.02 -4 4 C-3.01 4 -2.02 4 -1 4 C-0.67 2.68 -0.34 1.36 0 0 Z " fill="#275F98" transform="translate(420,394)"/>
<path d="M0 0 C0.66 0 1.32 0 2 0 C1.60196439 2.88575819 1.20990931 3.82189513 -1.0625 5.75 C-1.701875 6.1625 -2.34125 6.575 -3 7 C-3.33 6.01 -3.66 5.02 -4 4 C-3.01 4 -2.02 4 -1 4 C-0.67 2.68 -0.34 1.36 0 0 Z " fill="#23578D" transform="translate(71,184)"/>
<path d="M0 0 C0.33 0.99 0.66 1.98 1 3 C-0.65 4.65 -2.3 6.3 -4 8 C-4.66 7.67 -5.32 7.34 -6 7 C-4.02 4.69 -2.04 2.38 0 0 Z " fill="#1E4977" transform="translate(73,60)"/>
<path d="M0 0 C4 1 4 1 4 1 Z " fill="#000102" transform="translate(422,102)"/>
<path d="M0 0 C3 1 3 1 3 1 Z " fill="#000101" transform="translate(131,451)"/>
<path d="M0 0 C3 1 3 1 3 1 Z " fill="#010102" transform="translate(123,451)"/>
<path d="M0 0 C0.66 0.66 1.32 1.32 2 2 C1.34 2 0.68 2 0 2 C0 1.34 0 0.68 0 0 Z " fill="#000101" transform="translate(308,224)"/>
<path d="M0 0 C3 1 3 1 3 1 Z " fill="#010203" transform="translate(443,102)"/>
<path d="M0 0 C3 1 3 1 3 1 Z " fill="#000102" transform="translate(418,102)"/>
<path d="M0 0 C3 1 3 1 3 1 Z " fill="#000101" transform="translate(414,102)"/>
<path d="M0 0 C3 1 3 1 3 1 Z " fill="#000102" transform="translate(123,22)"/>
<path d="M0 0 C2 1 2 1 2 1 Z " fill="#000101" transform="translate(115,450)"/>
<path d="" fill="#000101" transform="translate(0,0)"/>
<path d="" fill="#000101" transform="translate(0,0)"/>
<path d="M0 0 C2 1 2 1 2 1 Z " fill="#010102" transform="translate(110,165)"/>
<path d="" fill="#000101" transform="translate(0,0)"/>
<path d="" fill="#010102" transform="translate(0,0)"/>
<path d="M0 0 C2 1 2 1 2 1 Z " fill="#000102" transform="translate(187,116)"/>
<path d="M0 0 C2 1 2 1 2 1 Z " fill="#000101" transform="translate(435,102)"/>
<path d="M0 0 C2 1 2 1 2 1 Z " fill="#010203" transform="translate(431,102)"/>
<path d="M0 0 C2 1 2 1 2 1 Z " fill="#000101" transform="translate(427,102)"/>
<path d="M0 0 C2 1 2 1 2 1 Z " fill="#000101" transform="translate(411,102)"/>
<path d="M0 0 C2 1 2 1 2 1 Z " fill="#000102" transform="translate(146,14)"/>
<path d="" fill="#000101" transform="translate(0,0)"/>
<path d="" fill="#000101" transform="translate(0,0)"/>
<path d="" fill="#000101" transform="translate(0,0)"/>
<path d="" fill="#000101" transform="translate(0,0)"/>
<path d="" fill="#000101" transform="translate(0,0)"/>
<path d="" fill="#000101" transform="translate(0,0)"/>
<path d="" fill="#000101" transform="translate(0,0)"/>
<path d="" fill="#010102" transform="translate(0,0)"/>
<path d="" fill="#010102" transform="translate(0,0)"/>
<path d="" fill="#000101" transform="translate(0,0)"/>
<path d="" fill="#010102" transform="translate(0,0)"/>
<path d="" fill="#000101" transform="translate(0,0)"/>
<path d="" fill="#000101" transform="translate(0,0)"/>
<path d="" fill="#010202" transform="translate(0,0)"/>
<path d="" fill="#000101" transform="translate(0,0)"/>
<path d="" fill="#000101" transform="translate(0,0)"/>
<path d="" fill="#000101" transform="translate(0,0)"/>
<path d="" fill="#000101" transform="translate(0,0)"/>
<path d="" fill="#000101" transform="translate(0,0)"/>
<path d="" fill="#000101" transform="translate(0,0)"/>
<path d="" fill="#010202" transform="translate(0,0)"/>
<path d="" fill="#000101" transform="translate(0,0)"/>
<path d="" fill="#000101" transform="translate(0,0)"/>
<path d="" fill="#000101" transform="translate(0,0)"/>
<path d="" fill="#000101" transform="translate(0,0)"/>
<path d="" fill="#000101" transform="translate(0,0)"/>
<path d="" fill="#000101" transform="translate(0,0)"/>
<path d="" fill="#000101" transform="translate(0,0)"/>
<path d="" fill="#000101" transform="translate(0,0)"/>
<path d="" fill="#000101" transform="translate(0,0)"/>
<path d="" fill="#000101" transform="translate(0,0)"/>
<path d="" fill="#000101" transform="translate(0,0)"/>
<path d="" fill="#000101" transform="translate(0,0)"/>
<path d="" fill="#010102" transform="translate(0,0)"/>
<path d="" fill="#010102" transform="translate(0,0)"/>
<path d="" fill="#000101" transform="translate(0,0)"/>
<path d="" fill="#000101" transform="translate(0,0)"/>
<path d="" fill="#000101" transform="translate(0,0)"/>
<path d="" fill="#000101" transform="translate(0,0)"/>
<path d="" fill="#000101" transform="translate(0,0)"/>
<path d="" fill="#000101" transform="translate(0,0)"/>
<path d="" fill="#000102" transform="translate(0,0)"/>
<path d="" fill="#000101" transform="translate(0,0)"/>
<path d="" fill="#010102" transform="translate(0,0)"/>
<path d="" fill="#010202" transform="translate(0,0)"/>
<path d="" fill="#010102" transform="translate(0,0)"/>
<path d="" fill="#000101" transform="translate(0,0)"/>
<path d="" fill="#010102" transform="translate(0,0)"/>
<path d="" fill="#000101" transform="translate(0,0)"/>
<path d="" fill="#000101" transform="translate(0,0)"/>
<path d="" fill="#010102" transform="translate(0,0)"/>
<path d="" fill="#000101" transform="translate(0,0)"/>
<path d="" fill="#010102" transform="translate(0,0)"/>
<path d="" fill="#010102" transform="translate(0,0)"/>
<path d="" fill="#010102" transform="translate(0,0)"/>
<path d="" fill="#010203" transform="translate(0,0)"/>
<path d="" fill="#000101" transform="translate(0,0)"/>
<path d="" fill="#010203" transform="translate(0,0)"/>
<path d="" fill="#000102" transform="translate(0,0)"/>
<path d="" fill="#000101" transform="translate(0,0)"/>
<path d="" fill="#000101" transform="translate(0,0)"/>
<path d="" fill="#010102" transform="translate(0,0)"/>
<path d="" fill="#000101" transform="translate(0,0)"/>
<path d="" fill="#000101" transform="translate(0,0)"/>
<path d="" fill="#000101" transform="translate(0,0)"/>
<path d="" fill="#000102" transform="translate(0,0)"/>
<path d="" fill="#000101" transform="translate(0,0)"/>
<path d="" fill="#000101" transform="translate(0,0)"/>
<path d="" fill="#000101" transform="translate(0,0)"/>
<path d="" fill="#000101" transform="translate(0,0)"/>
<path d="" fill="#000101" transform="translate(0,0)"/>
<path d="" fill="#010102" transform="translate(0,0)"/>
<path d="" fill="#000101" transform="translate(0,0)"/>
<path d="" fill="#000102" transform="translate(0,0)"/>
<path d="" fill="#000101" transform="translate(0,0)"/>
<path d="" fill="#000101" transform="translate(0,0)"/>
<path d="" fill="#010102" transform="translate(0,0)"/>
<path d="" fill="#000101" transform="translate(0,0)"/>
<path d="" fill="#000101" transform="translate(0,0)"/>
<path d="" fill="#000102" transform="translate(0,0)"/>
<path d="" fill="#000101" transform="translate(0,0)"/>
</svg>
